<?xml version="1.0" standalone="no"?><!DOCTYPE svg PUBLIC "-//W3C//DTD SVG 1.1//EN" "http://www.w3.org/Graphics/SVG/1.1/DTD/svg11.dtd"><svg t="1622516920873" class="icon" viewBox="0 0 1024 1024" version="1.1" xmlns="http://www.w3.org/2000/svg" p-id="2356" xmlns:xlink="http://www.w3.org/1999/xlink" width="200" height="200"><defs><style type="text/css"></style></defs><path d="M468.693333 16.725333a85.333333 85.333333 0 0 1 82.56 0l381.952 211.072a85.333333 85.333333 0 0 1 44.074667 74.666667v419.029333a85.333333 85.333333 0 0 1-44.074667 74.666667l-381.952 211.114667a85.333333 85.333333 0 0 1-82.56 0L86.741333 796.16A85.333333 85.333333 0 0 1 42.666667 721.493333V302.506667a85.333333 85.333333 0 0 1 44.074666-74.666667L468.693333 16.682667zM270.378667 318.634667a53.333333 53.333333 0 1 0-51.626667 93.397333l237.866667 131.413333v261.888a53.333333 53.333333 0 0 0 106.666666 0v-261.888l237.866667-131.413333a53.333333 53.333333 0 0 0-51.584-93.397333l-239.616 132.437333-239.573333-132.437333z" fill="#75C82B" p-id="2357"></path></svg>