<?xml version="1.0" standalone="no"?><!DOCTYPE svg PUBLIC "-//W3C//DTD SVG 1.1//EN" "http://www.w3.org/Graphics/SVG/1.1/DTD/svg11.dtd"><svg t="1621320983354" class="icon" viewBox="0 0 1025 1024" version="1.1" xmlns="http://www.w3.org/2000/svg" p-id="3711" xmlns:xlink="http://www.w3.org/1999/xlink" width="200.1953125" height="200"><defs><style type="text/css"></style></defs><path d="M512 512m-512 0a512 512 0 1 0 1024 0 512 512 0 1 0-1024 0Z" fill="#1DC0FD" p-id="3712"></path><path d="M993.28 512c0 148.48-68.096 281.6-174.592 368.64-81.92 67.072-186.88 107.52-301.568 107.52s-219.136-40.448-301.568-107.52c-106.496-87.04-174.592-220.16-174.592-368.64 0-263.168 212.992-476.16 476.16-476.16s476.16 212.992 476.16 476.16z" fill="#1DC0FD" p-id="3713"></path><path d="M704 706.048c-55.296-45.568-95.744-43.52-95.744-43.52l-91.136-0.512-91.136 0.512s-40.448-2.048-95.744 43.52C287.744 740.864 235.52 803.84 215.552 880.64c81.92 67.072 186.88 107.52 301.568 107.52s219.136-40.448 301.568-107.52c-19.968-76.8-72.192-139.776-114.688-174.592z m-186.88-417.792c-97.792 0-177.152 79.36-177.152 177.152s79.36 177.152 177.152 177.152 177.152-79.36 177.152-177.152-79.36-177.152-177.152-177.152z" fill="#FFFFFF" p-id="3714"></path></svg>