<?xml version="1.0" standalone="no"?><!DOCTYPE svg PUBLIC "-//W3C//DTD SVG 1.1//EN" "http://www.w3.org/Graphics/SVG/1.1/DTD/svg11.dtd"><svg t="1621324469340" class="icon" viewBox="0 0 1024 1024" version="1.1" xmlns="http://www.w3.org/2000/svg" p-id="7245" xmlns:xlink="http://www.w3.org/1999/xlink" width="200" height="200"><defs><style type="text/css"></style></defs><path d="M308.403 307.461h81.967v82.345h-81.967zM431.544 636.085h81.967v81.967h-81.967zM431.544 471.773h81.967v81.967h-81.967zM308.403 471.773h81.967v81.967h-81.967zM308.403 636.085h81.967v81.967h-81.967zM636.648 471.773h81.967v81.967h-81.967zM431.544 307.461h81.967v82.345h-81.967z" fill="#1296db" p-id="7246"></path><path d="M947.2 0H76.8C34.56 0 0 34.56 0 76.8v870.4c0 42.24 34.56 76.8 76.8 76.8h870.4c42.24 0 76.8-34.56 76.8-76.8V76.8C1024 34.56 989.44 0 947.2 0zM819.848 839.68H204.149a20.314 20.314 0 0 1-20.396-20.396c0-11.333 9.067-20.4 20.396-20.4h21.909V245.891c0-16.243 6.423-31.73 18.13-43.441 11.711-11.707 26.819-18.13 43.441-18.13h246.656c16.244 0 31.73 6.423 43.437 18.13 11.711 11.333 18.134 26.819 18.134 43.441v102.741h143.537c16.24 0 31.73 6.423 43.437 18.13 11.711 11.333 18.13 26.819 18.13 43.44v388.682h18.887c11.333 0 20.4 9.067 20.4 20.4a20.315 20.315 0 0 1-20.399 20.396z" fill="#1296db" p-id="7247"></path><path d="M636.648 636.085h81.967v81.967h-81.967z" fill="#1296db" p-id="7248"></path></svg>